<svg width="130" height="47" viewBox="0 0 230 157" fill="none" xmlns="http://www.w3.org/2000/svg">
<path d="M73.5368 107C70.6108 103.708 70.5368 91.7363 70.5368 87C70.5368 80.7548 71.9975 77.0635 75.759 72C79.5723 66.8667 86.3927 59.9488 93.0923 59.0556C101.2 57.9746 110.159 58.9467 118.315 59C126.291 59.0521 137.591 58.6063 144.926 62.5556C161.888 71.6893 171.537 91.1364 171.537 110C171.537 123.03 168.37 136.324 156.537 143.556C141.097 152.991 124.671 154 106.926 154C100.836 154 90.0519 156.308 84.759 152C80.5585 148.581 78.4618 143.207 74.5368 139.5C72.0497 137.151 68.4337 134.015 66.759 131C62.2194 122.829 63.5368 113.576 63.5368 104.5C63.5368 98.8077 65.5244 93.0123 69.5368 89" stroke="black" stroke-width="3" stroke-linecap="round"/>
<path d="M64.5368 110C57.1377 110 47.7548 114.551 40.0923 115.944C31.0268 117.593 26.4823 106.559 24.4812 99.5556C24.1097 98.2551 18.9719 102.002 18.0923 102.222C13.8117 103.292 7.78325 104.272 5.03677 100C0.314492 92.6542 1.31756 78.024 6.53677 71.5C7.12182 70.7687 8.18205 70.4567 8.98121 70C10.8082 68.956 7.31728 63.6268 6.98121 62.5556C4.5496 54.8048 3.77409 44.2379 4.59232 36.0556C5.01476 31.8312 6.67511 29.8786 10.5368 28C12.1165 27.2315 19.0695 25.6659 20.5368 27.5C22.1804 29.5546 45.165 4.34137 54.0923 5.05556C59.6082 5.49683 63.3852 9.2929 67.0923 13C70.8623 16.77 84.783 9.20512 88.759 7.94444C105.529 2.62698 123.274 2 140.759 2C146.015 2 143.549 9.24755 145.759 10.7778C146.479 11.276 148.869 11.0567 149.481 11.1111C154.524 11.5594 159.554 12.6113 164.537 13.4444C180.505 16.1146 196.693 18.1992 211.592 24.8889C216.876 27.2612 216.833 29.8076 216.537 35C216.216 40.6163 202.546 41.5313 205.315 45.2222C209.5 50.8028 215.177 53.1911 216.315 60.4444C216.75 63.2197 217.239 68.1864 214.981 70.4444C213.367 72.0586 206.459 73.3996 207.981 76.4444C209.579 79.6395 212.707 81.7852 214.315 85C216.102 88.5748 215.537 92.9155 215.537 96.7778C215.537 101.504 208.63 104.545 204.537 105C202.898 105.182 201.025 121.294 198.315 124.222C192.135 130.896 189.149 132.327 180.315 132C174.605 131.789 171.853 129.158 167.537 127" stroke="black" stroke-width="3" stroke-linecap="round"/>
<path d="M96.5368 96C92.5438 96.4437 92.4281 105.952 92.5368 108.778C92.6357 111.349 96.102 109.241 96.759 108C97.9024 105.84 97.5368 103.403 97.5368 101C97.5368 94.7121 96.9518 110.934 94.5368 105.5C93.926 104.126 93.5368 99.7812 93.5368 103C93.5368 107.921 93.5368 105.87 93.5368 102" stroke="black" stroke-width="3" stroke-linecap="round"/>
<path d="M125.537 97C125.537 100.936 122.106 104.164 122.592 108.056C122.974 111.109 126.083 115.327 129.315 113C133.341 110.101 128.899 96.0049 127.592 104.5C126.029 114.665 128.42 93.7741 125.592 106.5C124.938 109.445 123.354 109.105 123.537 106C123.699 103.24 128.33 108.604 125.537 110" stroke="black" stroke-width="3" stroke-linecap="round"/>
<path d="M106.537 117V120" stroke="black" stroke-width="3" stroke-linecap="round"/>
<path d="M90.5368 128C97.8202 134.555 106.243 140 116.315 140C121.898 140 123.098 138.878 125.537 134" stroke="black" stroke-width="3" stroke-linecap="round"/>
</svg>